<mxfile host="app.diagrams.net" modified="2021-04-16T07:19:52.236Z" agent="5.0 (Windows NT 10.0; Win64; x64) AppleWebKit/537.36 (KHTML, like Gecko) Chrome/90.0.4430.72 Safari/537.36" etag="ujsSK4_5ERuSjyJyaKEr" version="14.6.0" type="github">
  <diagram id="R2lEEEUBdFMjLlhIrx00" name="Page-1">
    <mxGraphModel dx="1422" dy="728" grid="1" gridSize="10" guides="1" tooltips="1" connect="1" arrows="1" fold="1" page="1" pageScale="1" pageWidth="850" pageHeight="1100" math="0" shadow="0" extFonts="Permanent Marker^https://fonts.googleapis.com/css?family=Permanent+Marker">
      <root>
        <mxCell id="0" />
        <mxCell id="1" parent="0" />
        <mxCell id="tpRtVpEG0VHv_PJB_afi-1" value="" style="rounded=0;whiteSpace=wrap;html=1;labelBackgroundColor=#009999;labelBorderColor=#000000;strokeColor=none;fillColor=#67AB9F;fontColor=#000000;" vertex="1" parent="1">
          <mxGeometry x="50" y="40" width="760" height="60" as="geometry" />
        </mxCell>
        <mxCell id="tpRtVpEG0VHv_PJB_afi-2" value="&lt;font style=&quot;font-size: 21px&quot;&gt;Step 2: Entity-Relationship-Model&lt;/font&gt;" style="text;html=1;strokeColor=none;fillColor=none;align=center;verticalAlign=middle;whiteSpace=wrap;rounded=0;labelBackgroundColor=none;fontColor=#000000;" vertex="1" parent="1">
          <mxGeometry x="70" y="60" width="720" height="20" as="geometry" />
        </mxCell>
      </root>
    </mxGraphModel>
  </diagram>
</mxfile>
